<mxfile host="app.diagrams.net" agent="Mozilla/5.0 (X11; Ubuntu; Linux x86_64; rv:132.0) Gecko/20100101 Firefox/132.0" version="24.8.3">
  <diagram name="Page-1" id="p-BH-mMNJu6DYSYM-aFi">
    <mxGraphModel dx="2214" dy="758" grid="1" gridSize="10" guides="1" tooltips="1" connect="1" arrows="1" fold="1" page="1" pageScale="1" pageWidth="850" pageHeight="1100" math="0" shadow="0">
      <root>
        <mxCell id="0" />
        <mxCell id="1" parent="0" />
        <mxCell id="kij5UVU0OnxoSedI3fek-25" value="" style="rounded=0;whiteSpace=wrap;html=1;" vertex="1" parent="1">
          <mxGeometry x="-90" y="190" width="590" height="500" as="geometry" />
        </mxCell>
        <mxCell id="kij5UVU0OnxoSedI3fek-1" value="m[0]" style="rounded=0;whiteSpace=wrap;html=1;fillColor=#fff2cc;strokeColor=#d6b656;" vertex="1" parent="1">
          <mxGeometry x="-40" y="260" width="120" height="60" as="geometry" />
        </mxCell>
        <mxCell id="kij5UVU0OnxoSedI3fek-11" value="" style="edgeStyle=orthogonalEdgeStyle;rounded=0;orthogonalLoop=1;jettySize=auto;html=1;" edge="1" parent="1" source="kij5UVU0OnxoSedI3fek-2" target="kij5UVU0OnxoSedI3fek-10">
          <mxGeometry relative="1" as="geometry" />
        </mxCell>
        <mxCell id="kij5UVU0OnxoSedI3fek-2" value="m[1]" style="rounded=0;whiteSpace=wrap;html=1;fillColor=#fff2cc;strokeColor=#d6b656;" vertex="1" parent="1">
          <mxGeometry x="80" y="260" width="120" height="60" as="geometry" />
        </mxCell>
        <mxCell id="kij5UVU0OnxoSedI3fek-4" value="m[w]" style="rounded=0;whiteSpace=wrap;html=1;fillColor=#fff2cc;strokeColor=#d6b656;" vertex="1" parent="1">
          <mxGeometry x="320" y="260" width="40" height="60" as="geometry" />
        </mxCell>
        <mxCell id="kij5UVU0OnxoSedI3fek-5" value="100" style="rounded=0;whiteSpace=wrap;html=1;fillColor=#ffe6cc;strokeColor=#d79b00;" vertex="1" parent="1">
          <mxGeometry x="360" y="260" width="80" height="60" as="geometry" />
        </mxCell>
        <mxCell id="kij5UVU0OnxoSedI3fek-6" value="F(k, .)" style="rounded=0;whiteSpace=wrap;html=1;fillColor=#dae8fc;strokeColor=#6c8ebf;" vertex="1" parent="1">
          <mxGeometry x="-20" y="460" width="80" height="60" as="geometry" />
        </mxCell>
        <mxCell id="kij5UVU0OnxoSedI3fek-7" value="" style="endArrow=classic;html=1;rounded=0;exitX=0.5;exitY=1;exitDx=0;exitDy=0;entryX=0.5;entryY=0;entryDx=0;entryDy=0;" edge="1" parent="1" source="kij5UVU0OnxoSedI3fek-1" target="kij5UVU0OnxoSedI3fek-6">
          <mxGeometry width="50" height="50" relative="1" as="geometry">
            <mxPoint x="400" y="420" as="sourcePoint" />
            <mxPoint x="450" y="370" as="targetPoint" />
          </mxGeometry>
        </mxCell>
        <mxCell id="kij5UVU0OnxoSedI3fek-8" value="F(k, .)" style="rounded=0;whiteSpace=wrap;html=1;fillColor=#dae8fc;strokeColor=#6c8ebf;" vertex="1" parent="1">
          <mxGeometry x="100" y="460" width="80" height="60" as="geometry" />
        </mxCell>
        <mxCell id="kij5UVU0OnxoSedI3fek-24" value="" style="edgeStyle=orthogonalEdgeStyle;rounded=0;orthogonalLoop=1;jettySize=auto;html=1;dashed=1;" edge="1" parent="1" source="kij5UVU0OnxoSedI3fek-9" target="kij5UVU0OnxoSedI3fek-23">
          <mxGeometry relative="1" as="geometry" />
        </mxCell>
        <mxCell id="kij5UVU0OnxoSedI3fek-9" value="F(k, .)" style="rounded=0;whiteSpace=wrap;html=1;fillColor=#dae8fc;strokeColor=#6c8ebf;" vertex="1" parent="1">
          <mxGeometry x="340" y="460" width="80" height="60" as="geometry" />
        </mxCell>
        <mxCell id="kij5UVU0OnxoSedI3fek-12" value="" style="edgeStyle=orthogonalEdgeStyle;rounded=0;orthogonalLoop=1;jettySize=auto;html=1;" edge="1" parent="1" source="kij5UVU0OnxoSedI3fek-10" target="kij5UVU0OnxoSedI3fek-8">
          <mxGeometry relative="1" as="geometry" />
        </mxCell>
        <mxCell id="kij5UVU0OnxoSedI3fek-10" value="" style="shape=orEllipse;perimeter=ellipsePerimeter;whiteSpace=wrap;html=1;backgroundOutline=1;fillColor=#f8cecc;strokeColor=#b85450;" vertex="1" parent="1">
          <mxGeometry x="120" y="370" width="40" height="40" as="geometry" />
        </mxCell>
        <mxCell id="kij5UVU0OnxoSedI3fek-15" value="" style="edgeStyle=orthogonalEdgeStyle;rounded=0;orthogonalLoop=1;jettySize=auto;html=1;" edge="1" parent="1" source="kij5UVU0OnxoSedI3fek-13" target="kij5UVU0OnxoSedI3fek-9">
          <mxGeometry relative="1" as="geometry" />
        </mxCell>
        <mxCell id="kij5UVU0OnxoSedI3fek-13" value="" style="shape=orEllipse;perimeter=ellipsePerimeter;whiteSpace=wrap;html=1;backgroundOutline=1;fillColor=#f8cecc;strokeColor=#b85450;" vertex="1" parent="1">
          <mxGeometry x="360" y="370" width="40" height="40" as="geometry" />
        </mxCell>
        <mxCell id="kij5UVU0OnxoSedI3fek-14" value="" style="endArrow=classic;html=1;rounded=0;entryX=0.5;entryY=0;entryDx=0;entryDy=0;exitX=0.25;exitY=1;exitDx=0;exitDy=0;" edge="1" parent="1" source="kij5UVU0OnxoSedI3fek-5" target="kij5UVU0OnxoSedI3fek-13">
          <mxGeometry width="50" height="50" relative="1" as="geometry">
            <mxPoint x="400" y="420" as="sourcePoint" />
            <mxPoint x="450" y="370" as="targetPoint" />
          </mxGeometry>
        </mxCell>
        <mxCell id="kij5UVU0OnxoSedI3fek-22" value="" style="edgeStyle=orthogonalEdgeStyle;rounded=0;orthogonalLoop=1;jettySize=auto;html=1;" edge="1" parent="1" source="kij5UVU0OnxoSedI3fek-16" target="kij5UVU0OnxoSedI3fek-13">
          <mxGeometry relative="1" as="geometry" />
        </mxCell>
        <mxCell id="kij5UVU0OnxoSedI3fek-16" value="k1" style="text;html=1;align=center;verticalAlign=middle;whiteSpace=wrap;rounded=0;" vertex="1" parent="1">
          <mxGeometry x="440" y="375" width="60" height="30" as="geometry" />
        </mxCell>
        <mxCell id="kij5UVU0OnxoSedI3fek-17" value="" style="endArrow=classic;html=1;rounded=0;exitX=0.5;exitY=1;exitDx=0;exitDy=0;entryX=0;entryY=0.5;entryDx=0;entryDy=0;" edge="1" parent="1" source="kij5UVU0OnxoSedI3fek-6" target="kij5UVU0OnxoSedI3fek-10">
          <mxGeometry width="50" height="50" relative="1" as="geometry">
            <mxPoint x="400" y="420" as="sourcePoint" />
            <mxPoint x="450" y="370" as="targetPoint" />
            <Array as="points">
              <mxPoint x="20" y="560" />
              <mxPoint x="70" y="560" />
              <mxPoint x="70" y="390" />
            </Array>
          </mxGeometry>
        </mxCell>
        <mxCell id="kij5UVU0OnxoSedI3fek-18" value="" style="endArrow=classic;html=1;rounded=0;exitX=0.5;exitY=1;exitDx=0;exitDy=0;entryX=0;entryY=0.5;entryDx=0;entryDy=0;" edge="1" parent="1" source="kij5UVU0OnxoSedI3fek-8" target="kij5UVU0OnxoSedI3fek-13">
          <mxGeometry width="50" height="50" relative="1" as="geometry">
            <mxPoint x="400" y="420" as="sourcePoint" />
            <mxPoint x="450" y="370" as="targetPoint" />
            <Array as="points">
              <mxPoint x="140" y="560" />
              <mxPoint x="300" y="560" />
              <mxPoint x="300" y="390" />
            </Array>
          </mxGeometry>
        </mxCell>
        <mxCell id="kij5UVU0OnxoSedI3fek-19" value="" style="shape=waypoint;sketch=0;fillStyle=solid;size=6;pointerEvents=1;points=[];fillColor=none;resizable=0;rotatable=0;perimeter=centerPerimeter;snapToPoint=1;" vertex="1" parent="1">
          <mxGeometry x="230" y="280" width="20" height="20" as="geometry" />
        </mxCell>
        <mxCell id="kij5UVU0OnxoSedI3fek-20" value="" style="shape=waypoint;sketch=0;fillStyle=solid;size=6;pointerEvents=1;points=[];fillColor=none;resizable=0;rotatable=0;perimeter=centerPerimeter;snapToPoint=1;" vertex="1" parent="1">
          <mxGeometry x="250" y="280" width="20" height="20" as="geometry" />
        </mxCell>
        <mxCell id="kij5UVU0OnxoSedI3fek-21" value="" style="shape=waypoint;sketch=0;fillStyle=solid;size=6;pointerEvents=1;points=[];fillColor=none;resizable=0;rotatable=0;perimeter=centerPerimeter;snapToPoint=1;" vertex="1" parent="1">
          <mxGeometry x="270" y="280" width="20" height="20" as="geometry" />
        </mxCell>
        <mxCell id="kij5UVU0OnxoSedI3fek-23" value="TAG" style="rounded=0;whiteSpace=wrap;html=1;dashed=1;fillColor=#e1d5e7;strokeColor=#9673a6;" vertex="1" parent="1">
          <mxGeometry x="345" y="590" width="70" height="60" as="geometry" />
        </mxCell>
        <mxCell id="kij5UVU0OnxoSedI3fek-26" value="Message is not multiple of a block" style="text;html=1;align=center;verticalAlign=middle;whiteSpace=wrap;rounded=0;" vertex="1" parent="1">
          <mxGeometry x="96.25" y="190" width="217.5" height="30" as="geometry" />
        </mxCell>
        <mxCell id="kij5UVU0OnxoSedI3fek-27" value="" style="rounded=0;whiteSpace=wrap;html=1;" vertex="1" parent="1">
          <mxGeometry x="520" y="190" width="590" height="500" as="geometry" />
        </mxCell>
        <mxCell id="kij5UVU0OnxoSedI3fek-28" value="m[0]" style="rounded=0;whiteSpace=wrap;html=1;fillColor=#fff2cc;strokeColor=#d6b656;" vertex="1" parent="1">
          <mxGeometry x="570" y="260" width="120" height="60" as="geometry" />
        </mxCell>
        <mxCell id="kij5UVU0OnxoSedI3fek-29" value="" style="edgeStyle=orthogonalEdgeStyle;rounded=0;orthogonalLoop=1;jettySize=auto;html=1;" edge="1" parent="1" source="kij5UVU0OnxoSedI3fek-30" target="kij5UVU0OnxoSedI3fek-39">
          <mxGeometry relative="1" as="geometry" />
        </mxCell>
        <mxCell id="kij5UVU0OnxoSedI3fek-30" value="m[1]" style="rounded=0;whiteSpace=wrap;html=1;fillColor=#fff2cc;strokeColor=#d6b656;" vertex="1" parent="1">
          <mxGeometry x="690" y="260" width="120" height="60" as="geometry" />
        </mxCell>
        <mxCell id="kij5UVU0OnxoSedI3fek-31" value="m[w]" style="rounded=0;whiteSpace=wrap;html=1;fillColor=#fff2cc;strokeColor=#d6b656;" vertex="1" parent="1">
          <mxGeometry x="930" y="260" width="120" height="60" as="geometry" />
        </mxCell>
        <mxCell id="kij5UVU0OnxoSedI3fek-33" value="F(k, .)" style="rounded=0;whiteSpace=wrap;html=1;fillColor=#dae8fc;strokeColor=#6c8ebf;" vertex="1" parent="1">
          <mxGeometry x="590" y="460" width="80" height="60" as="geometry" />
        </mxCell>
        <mxCell id="kij5UVU0OnxoSedI3fek-34" value="" style="endArrow=classic;html=1;rounded=0;exitX=0.5;exitY=1;exitDx=0;exitDy=0;entryX=0.5;entryY=0;entryDx=0;entryDy=0;" edge="1" parent="1" source="kij5UVU0OnxoSedI3fek-28" target="kij5UVU0OnxoSedI3fek-33">
          <mxGeometry width="50" height="50" relative="1" as="geometry">
            <mxPoint x="1010" y="420" as="sourcePoint" />
            <mxPoint x="1060" y="370" as="targetPoint" />
          </mxGeometry>
        </mxCell>
        <mxCell id="kij5UVU0OnxoSedI3fek-35" value="F(k, .)" style="rounded=0;whiteSpace=wrap;html=1;fillColor=#dae8fc;strokeColor=#6c8ebf;" vertex="1" parent="1">
          <mxGeometry x="710" y="460" width="80" height="60" as="geometry" />
        </mxCell>
        <mxCell id="kij5UVU0OnxoSedI3fek-36" value="" style="edgeStyle=orthogonalEdgeStyle;rounded=0;orthogonalLoop=1;jettySize=auto;html=1;dashed=1;" edge="1" parent="1" source="kij5UVU0OnxoSedI3fek-37" target="kij5UVU0OnxoSedI3fek-50">
          <mxGeometry relative="1" as="geometry" />
        </mxCell>
        <mxCell id="kij5UVU0OnxoSedI3fek-37" value="F(k, .)" style="rounded=0;whiteSpace=wrap;html=1;fillColor=#dae8fc;strokeColor=#6c8ebf;" vertex="1" parent="1">
          <mxGeometry x="950" y="460" width="80" height="60" as="geometry" />
        </mxCell>
        <mxCell id="kij5UVU0OnxoSedI3fek-38" value="" style="edgeStyle=orthogonalEdgeStyle;rounded=0;orthogonalLoop=1;jettySize=auto;html=1;" edge="1" parent="1" source="kij5UVU0OnxoSedI3fek-39" target="kij5UVU0OnxoSedI3fek-35">
          <mxGeometry relative="1" as="geometry" />
        </mxCell>
        <mxCell id="kij5UVU0OnxoSedI3fek-39" value="" style="shape=orEllipse;perimeter=ellipsePerimeter;whiteSpace=wrap;html=1;backgroundOutline=1;fillColor=#f8cecc;strokeColor=#b85450;" vertex="1" parent="1">
          <mxGeometry x="730" y="370" width="40" height="40" as="geometry" />
        </mxCell>
        <mxCell id="kij5UVU0OnxoSedI3fek-40" value="" style="edgeStyle=orthogonalEdgeStyle;rounded=0;orthogonalLoop=1;jettySize=auto;html=1;" edge="1" parent="1" source="kij5UVU0OnxoSedI3fek-41" target="kij5UVU0OnxoSedI3fek-37">
          <mxGeometry relative="1" as="geometry" />
        </mxCell>
        <mxCell id="kij5UVU0OnxoSedI3fek-41" value="" style="shape=orEllipse;perimeter=ellipsePerimeter;whiteSpace=wrap;html=1;backgroundOutline=1;fillColor=#f8cecc;strokeColor=#b85450;" vertex="1" parent="1">
          <mxGeometry x="970" y="370" width="40" height="40" as="geometry" />
        </mxCell>
        <mxCell id="kij5UVU0OnxoSedI3fek-42" value="" style="endArrow=classic;html=1;rounded=0;entryX=0.5;entryY=0;entryDx=0;entryDy=0;exitX=0.25;exitY=1;exitDx=0;exitDy=0;" edge="1" parent="1" target="kij5UVU0OnxoSedI3fek-41">
          <mxGeometry width="50" height="50" relative="1" as="geometry">
            <mxPoint x="990" y="320" as="sourcePoint" />
            <mxPoint x="1060" y="370" as="targetPoint" />
          </mxGeometry>
        </mxCell>
        <mxCell id="kij5UVU0OnxoSedI3fek-43" value="" style="edgeStyle=orthogonalEdgeStyle;rounded=0;orthogonalLoop=1;jettySize=auto;html=1;" edge="1" parent="1" source="kij5UVU0OnxoSedI3fek-44" target="kij5UVU0OnxoSedI3fek-41">
          <mxGeometry relative="1" as="geometry" />
        </mxCell>
        <mxCell id="kij5UVU0OnxoSedI3fek-44" value="k2" style="text;html=1;align=center;verticalAlign=middle;whiteSpace=wrap;rounded=0;" vertex="1" parent="1">
          <mxGeometry x="1050" y="375" width="60" height="30" as="geometry" />
        </mxCell>
        <mxCell id="kij5UVU0OnxoSedI3fek-45" value="" style="endArrow=classic;html=1;rounded=0;exitX=0.5;exitY=1;exitDx=0;exitDy=0;entryX=0;entryY=0.5;entryDx=0;entryDy=0;" edge="1" parent="1" source="kij5UVU0OnxoSedI3fek-33" target="kij5UVU0OnxoSedI3fek-39">
          <mxGeometry width="50" height="50" relative="1" as="geometry">
            <mxPoint x="1010" y="420" as="sourcePoint" />
            <mxPoint x="1060" y="370" as="targetPoint" />
            <Array as="points">
              <mxPoint x="630" y="560" />
              <mxPoint x="680" y="560" />
              <mxPoint x="680" y="390" />
            </Array>
          </mxGeometry>
        </mxCell>
        <mxCell id="kij5UVU0OnxoSedI3fek-46" value="" style="endArrow=classic;html=1;rounded=0;exitX=0.5;exitY=1;exitDx=0;exitDy=0;entryX=0;entryY=0.5;entryDx=0;entryDy=0;" edge="1" parent="1" source="kij5UVU0OnxoSedI3fek-35" target="kij5UVU0OnxoSedI3fek-41">
          <mxGeometry width="50" height="50" relative="1" as="geometry">
            <mxPoint x="1010" y="420" as="sourcePoint" />
            <mxPoint x="1060" y="370" as="targetPoint" />
            <Array as="points">
              <mxPoint x="750" y="560" />
              <mxPoint x="910" y="560" />
              <mxPoint x="910" y="390" />
            </Array>
          </mxGeometry>
        </mxCell>
        <mxCell id="kij5UVU0OnxoSedI3fek-47" value="" style="shape=waypoint;sketch=0;fillStyle=solid;size=6;pointerEvents=1;points=[];fillColor=none;resizable=0;rotatable=0;perimeter=centerPerimeter;snapToPoint=1;" vertex="1" parent="1">
          <mxGeometry x="840" y="280" width="20" height="20" as="geometry" />
        </mxCell>
        <mxCell id="kij5UVU0OnxoSedI3fek-48" value="" style="shape=waypoint;sketch=0;fillStyle=solid;size=6;pointerEvents=1;points=[];fillColor=none;resizable=0;rotatable=0;perimeter=centerPerimeter;snapToPoint=1;" vertex="1" parent="1">
          <mxGeometry x="860" y="280" width="20" height="20" as="geometry" />
        </mxCell>
        <mxCell id="kij5UVU0OnxoSedI3fek-49" value="" style="shape=waypoint;sketch=0;fillStyle=solid;size=6;pointerEvents=1;points=[];fillColor=none;resizable=0;rotatable=0;perimeter=centerPerimeter;snapToPoint=1;" vertex="1" parent="1">
          <mxGeometry x="880" y="280" width="20" height="20" as="geometry" />
        </mxCell>
        <mxCell id="kij5UVU0OnxoSedI3fek-50" value="TAG" style="rounded=0;whiteSpace=wrap;html=1;dashed=1;fillColor=#e1d5e7;strokeColor=#9673a6;" vertex="1" parent="1">
          <mxGeometry x="955" y="590" width="70" height="60" as="geometry" />
        </mxCell>
        <mxCell id="kij5UVU0OnxoSedI3fek-51" value="Message is multiple of a block" style="text;html=1;align=center;verticalAlign=middle;whiteSpace=wrap;rounded=0;" vertex="1" parent="1">
          <mxGeometry x="706.25" y="190" width="217.5" height="30" as="geometry" />
        </mxCell>
      </root>
    </mxGraphModel>
  </diagram>
</mxfile>
